<?xml version="1.0" encoding="utf-8"?><svg xmlns="http://www.w3.org/2000/svg" xmlns:xlink="http://www.w3.org/1999/xlink" width="1440" height="790" preserveAspectRatio="xMidYMid" viewBox="0 0 1440 790" style="z-index:1;display:block;background-color:rgb(255, 255, 255);animation-play-state:play" ><g transform="translate(720,395) scale(1,1) translate(-720,-395)" style="animation-play-state:play" ><path id="path0" d="M 247.64073194474946 339.886382948182
c 0 23.484461129166217 -5.7461979358598185 6.745536707313701 -12.491734643173519 6.745536707313701
S 222.65726265840243 363.37084407734824 222.65726265840243 339.886382948182
s 5.7461979358598185 -6.745536707313701 12.491734643173519 -6.745536707313701
S 247.64073194474946 316.4019218190158 247.64073194474946 339.886382948182
z" fill="none" stroke="none" style="animation-play-state:play" ></path>


<circle cx="0" cy="0" r="5.533813340588936" fill="#de9dd6" transform="translate(227.50286865234375 351.2913818359375)" style="animation-play-state:play" ></circle>
<path id="path1" d="M 949.3598901747646 341.7659311598218
c 0 37.54785792425179 -9.187241832529692 10.785023020795727 -19.97226485332542 10.785023020795727
S 909.4153604681137 379.31378908407356 909.4153604681137 341.7659311598218
s 9.187241832529692 -10.785023020795727 19.97226485332542 -10.785023020795727
S 949.3598901747646 304.21807323557 949.3598901747646 341.7659311598218
z" fill="none" stroke="none" style="animation-play-state:play" ></path>


<circle cx="0" cy="0" r="5.524590590189296" fill="#e0ff77" transform="translate(926.2359008789062 330.28106689453125)" style="animation-play-state:play" ></circle>
<path id="path2" d="M 1156.6242660155397 734.1702968466965
c 0 33.39507588676612 -8.171135589315114 9.59220264832644 -17.763338237641552 9.59220264832644
S 1121.0975895402564 767.5653727334626 1121.0975895402564 734.1702968466965
s 8.171135589315114 -9.59220264832644 17.763338237641552 -9.59220264832644
S 1156.6242660155397 700.7752209599304 1156.6242660155397 734.1702968466965
z" fill="none" stroke="none" style="animation-play-state:play" ></path>


<circle cx="0" cy="0" r="7.394567966006109" fill="#e0ff77" transform="translate(1121.244140625 727.3485107421875)" style="animation-play-state:play" ></circle>
<path id="path3" d="M 967.4869458045937 199.53453226952826
c 0 33.579875813150295 -8.216352592579327 9.645283478245299 -17.861636070824623 9.645283478245299
S 931.7636736629445 233.11440808267855 931.7636736629445 199.53453226952826
s 8.216352592579327 -9.645283478245299 17.861636070824623 -9.645283478245299
S 967.4869458045937 165.95465645637796 967.4869458045937 199.53453226952826
z" fill="none" stroke="none" style="animation-play-state:play" ></path>


<circle cx="0" cy="0" r="6.206141762159376" fill="#9df871" transform="translate(950.8931274414062 189.75643920898438)" style="animation-play-state:play" ></circle>
<path id="path4" d="M 65.73523454325004 518.3191695024078
c 0 37.200281763914646 -9.1021966018089 10.685187315166973 -19.787383916975873 10.685187315166973
S 26.1604667092983 555.5194512663224 26.1604667092983 518.3191695024078
s 9.1021966018089 -10.685187315166973 19.787383916975873 -10.685187315166973
S 65.73523454325004 481.1188877384932 65.73523454325004 518.3191695024078
z" fill="none" stroke="none" style="animation-play-state:play" ></path>


<circle cx="0" cy="0" r="6.430359965341299" fill="#e0ff77" transform="translate(65.26043701171875 506.55615234375)" style="animation-play-state:play" ></circle>
<path id="path5" d="M 1316.1527693915637 471.2524370632201
c 0 26.992051925580007 -6.604438237110001 7.753036191390002 -14.357474428500003 7.753036191390002
S 1287.4378205345638 498.24448898880013 1287.4378205345638 471.2524370632201
s 6.604438237110001 -7.753036191390002 14.357474428500003 -7.753036191390002
S 1316.1527693915637 444.26038513764007 1316.1527693915637 471.2524370632201
z" fill="none" stroke="none" style="animation-play-state:play" ></path>


<circle cx="0" cy="0" r="5.321829810561985" fill="#51cacc" transform="translate(1287.4786376953125 467.84088134765625)" style="animation-play-state:play" ></circle>
<path id="path6" d="M 828.242092774473 447.88942140658986
c 0 29.64743461787354 -7.2541595341605465 8.51575249662325 -15.769912030783797 8.51575249662325
S 796.7022687129055 477.5368560244634 796.7022687129055 447.88942140658986
s 7.2541595341605465 -8.51575249662325 15.769912030783797 -8.51575249662325
S 828.242092774473 418.2419867887163 828.242092774473 447.88942140658986
z" fill="none" stroke="none" style="animation-play-state:play" ></path>


<circle cx="0" cy="0" r="6.090166256105343" fill="#ff708e" transform="translate(827.8056640625 438.00079345703125)" style="animation-play-state:play" ></circle>
<path id="path7" d="M 322.65555926820525 134.82892177258756
c 0 19.77534342930265 -4.838647860361286 5.680151836076293 -10.51879969643758 5.680151836076293
S 301.61795987533014 154.6042652018902 301.61795987533014 134.82892177258756
s 4.838647860361286 -5.680151836076293 10.51879969643758 -5.680151836076293
S 322.65555926820525 115.05357834328491 322.65555926820525 134.82892177258756
z" fill="none" stroke="none" style="animation-play-state:play" ></path>


<circle cx="0" cy="0" r="7.822128722512231" fill="#9df871" transform="translate(317.939697265625 143.9076385498047)" style="animation-play-state:play" ></circle>
<path id="path8" d="M 1358.2872779699399 96.47119504471189
c 0 29.703375118890843 -7.267847103558397 8.531820512872901 -15.799667616431298 8.531820512872901
S 1326.687942737077 126.17457016360274 1326.687942737077 96.47119504471189
s 7.267847103558397 -8.531820512872901 15.799667616431298 -8.531820512872901
S 1358.2872779699399 66.76781992582104 1358.2872779699399 96.47119504471189
z" fill="none" stroke="none" style="animation-play-state:play" ></path>


<circle cx="0" cy="0" r="5.120802714972246" fill="#ff708e" transform="translate(1337.031982421875 107.36489868164062)" style="animation-play-state:play" ></circle>
<path id="path9" d="M 742.8883968243002 633.8131425381262
c 0 22.740460658878863 -5.56415526759802 6.531834444571588 -12.095989712169608 6.531834444571588
S 718.696417399961 656.553603197005 718.696417399961 633.8131425381262
s 5.56415526759802 -6.531834444571588 12.095989712169608 -6.531834444571588
S 742.8883968243002 611.0726818792473 742.8883968243002 633.8131425381262
z" fill="none" stroke="none" style="animation-play-state:play" ></path>


<circle cx="0" cy="0" r="7.578630353808327" fill="#ff708e" transform="translate(719.1812744140625 642.458251953125)" style="animation-play-state:play" ></circle>
<path id="path10" d="M 361.6170542449393 22.25255209011827
c 0 31.345995527100165 -7.669764863013869 9.003637013103239 -16.673401876117108 9.003637013103239
S 328.2702504927051 53.598547617218436 328.2702504927051 22.25255209011827
s 7.669764863013869 -9.003637013103239 16.673401876117108 -9.003637013103239
S 361.6170542449393 -9.093443436981893 361.6170542449393 22.25255209011827
z" fill="none" stroke="none" style="animation-play-state:play" ></path>


<circle cx="0" cy="0" r="4.089281646925222" fill="#ff708e" transform="translate(338.6528015136719 34.166648864746094)" style="animation-play-state:play" ></circle>
<path id="path11" d="M 246.55448955029178 628.770259621643
c 0 23.238585761207982 -5.686036941572166 6.6749129314108036 -12.36094987298297 6.6749129314108036
S 221.83258980432586 652.0088453828511 221.83258980432586 628.770259621643
s 5.686036941572166 -6.6749129314108036 12.36094987298297 -6.6749129314108036
S 246.55448955029178 605.531673860435 246.55448955029178 628.770259621643
z" fill="none" stroke="none" style="animation-play-state:play" ></path>


<circle cx="0" cy="0" r="4.333263535996625" fill="#ff708e" transform="translate(222.12094116210938 636.040283203125)" style="animation-play-state:play" ></circle>
<path id="path12" d="M 460.97987087521153 150.50298632513545
c 0 28.988099898577293 -7.092832953907209 8.326369119804117 -15.419202073711325 8.326369119804117
S 430.14146672778884 179.49108622371276 430.14146672778884 150.50298632513545
s 7.092832953907209 -8.326369119804117 15.419202073711325 -8.326369119804117
S 460.97987087521153 121.51488642655816 460.97987087521153 150.50298632513545
z" fill="none" stroke="none" style="animation-play-state:play" ></path>


<circle cx="0" cy="0" r="7.472704524412611" fill="#e0ff77" transform="translate(460.8897399902344 155.59043884277344)" style="animation-play-state:play" ></circle>
<path id="path13" d="M 320.8811174976246 762.511434101727
c 0 34.54305563100938 -8.452024250140592 9.921941511034609 -18.373965761175203 9.921941511034609
S 284.13318597527416 797.0544897327363 284.13318597527416 762.511434101727
s 8.452024250140592 -9.921941511034609 18.373965761175203 -9.921941511034609
S 320.8811174976246 727.9683784707177 320.8811174976246 762.511434101727
z" fill="none" stroke="none" style="animation-play-state:play" ></path>


<circle cx="0" cy="0" r="4.2416942450439965" fill="#e0ff77" transform="translate(306.02020263671875 751.6622924804688)" style="animation-play-state:play" ></circle>
<path id="path14" d="M 387.78551525044264 438.5064472903547
c 0 19.52522001952769 -4.777447451586562 5.608307877949444 -10.385755329536007 5.608307877949444
S 367.0140045913707 458.0316673098824 367.0140045913707 438.5064472903547
s 4.777447451586562 -5.608307877949444 10.385755329536007 -5.608307877949444
S 387.78551525044264 418.981227270827 387.78551525044264 438.5064472903547
z" fill="none" stroke="none" style="animation-play-state:play" ></path>


<circle cx="0" cy="0" r="6.187777836478599" fill="#e0ff77" transform="translate(380.3634338378906 445.2176208496094)" style="animation-play-state:play" ></circle>
<path id="path15" d="M 608.2927275746515 563.6449741708287
c 0 33.894635723958935 -8.29336831543676 9.735693239860545 -18.029061555297304 9.735693239860545
S 572.2346044640569 597.5396098947876 572.2346044640569 563.6449741708287
s 8.29336831543676 -9.735693239860545 18.029061555297304 -9.735693239860545
S 608.2927275746515 529.7503384468698 608.2927275746515 563.6449741708287
z" fill="none" stroke="none" style="animation-play-state:play" ></path>


<circle cx="0" cy="0" r="6.639272674897139" fill="#de9dd6" transform="translate(583.6705322265625 550.928466796875)" style="animation-play-state:play" ></circle>
<path id="path16" d="M 238.5488991180252 245.04627448037124
c 0 32.86785762207201 -8.042135375613364 9.440767614850472 -17.482902990463835 9.440767614850472
S 203.58309313709753 277.91413210244326 203.58309313709753 245.04627448037124
s 8.042135375613364 -9.440767614850472 17.482902990463835 -9.440767614850472
S 238.5488991180252 212.17841685829922 238.5488991180252 245.04627448037124
z" fill="none" stroke="none" style="animation-play-state:play" ></path>


<circle cx="0" cy="0" r="7.773001147418726" fill="#9df871" transform="translate(203.58807373046875 246.42942810058594)" style="animation-play-state:play" ></circle>
<path id="path17" d="M 921.4240183427837 573.1675200510681
c 0 29.271229049861727 -7.162109235604465 8.407693450492198 -15.569802686096663 8.407693450492198
S 890.2844129705904 602.4387491009298 890.2844129705904 573.1675200510681
s 7.162109235604465 -8.407693450492198 15.569802686096663 -8.407693450492198
S 921.4240183427837 543.8962910012064 921.4240183427837 573.1675200510681
z" fill="none" stroke="none" style="animation-play-state:play" ></path>


<circle cx="0" cy="0" r="5.560995350803971" fill="#e0ff77" transform="translate(891.5921020507812 559.3562622070312)" style="animation-play-state:play" ></circle>
<path id="path18" d="M 1017.2444433368667 214.76215687389706
c 0 37.287105943741935 -9.123440816021963 10.710126175330132 -19.833566991352093 10.710126175330132
S 977.5773093541625 252.04926281763898 977.5773093541625 214.76215687389706
s 9.123440816021963 -10.710126175330132 19.833566991352093 -10.710126175330132
S 1017.2444433368667 177.47505093015513 1017.2444433368667 214.76215687389706
z" fill="none" stroke="none" style="animation-play-state:play" ></path>


<circle cx="0" cy="0" r="5.524342515849263" fill="#e0ff77" transform="translate(993.4434814453125 226.56227111816406)" style="animation-play-state:play" ></circle>
<path id="path19" d="M 1241.8357649745603 515.499888067883
c 0 32.727629439956495 -8.007824224670205 9.400489307221546 -17.40831353189175 9.400489307221546
S 1207.0191379107769 548.2275175078395 1207.0191379107769 515.499888067883
s 8.007824224670205 -9.400489307221546 17.40831353189175 -9.400489307221546
S 1241.8357649745603 482.77225862792653 1241.8357649745603 515.499888067883
z" fill="none" stroke="none" style="animation-play-state:play" ></path>


<circle cx="0" cy="0" r="4.892928127446116" fill="#9df871" transform="translate(1207.2733154296875 524.0029296875)" style="animation-play-state:play" ></circle>
<path id="path20" d="M 733.7456896005731 205.48979097160944
c 0 19.41876342788618 -4.751399562142362 5.577729920775818 -10.32912948291818 5.577729920775818
S 713.0874306347366 224.9085543994956 713.0874306347366 205.48979097160944
s 4.751399562142362 -5.577729920775818 10.32912948291818 -5.577729920775818
S 733.7456896005731 186.07102754372326 733.7456896005731 205.48979097160944
z" fill="none" stroke="none" style="animation-play-state:play" ></path>


<circle cx="0" cy="0" r="7.706528822713459" fill="#51cacc" transform="translate(733.73486328125 207.0208740234375)" style="animation-play-state:play" ></circle>
<path id="path21" d="M 52.507793496405824 448.2642847293576
c 0 24.493740030917586 -5.993149156501111 7.035435966327392 -13.028585122828503 7.035435966327392
S 26.45062325074882 472.7580247602752 26.45062325074882 448.2642847293576
s 5.993149156501111 -7.035435966327392 13.028585122828503 -7.035435966327392
S 52.507793496405824 423.77054469844 52.507793496405824 448.2642847293576
z" fill="none" stroke="none" style="animation-play-state:play" ></path>


<circle cx="0" cy="0" r="5.513823547958079" fill="#e0ff77" transform="translate(44.82586669921875 457.9263000488281)" style="animation-play-state:play" ></circle>
<path id="path22" d="M 321.1720285433715 15.954964322897421
c 0 23.16575115327456 -5.668215707716115 6.653992352536309 -12.322208060252425 6.653992352536309
S 296.52761242286664 39.12071547617198 296.52761242286664 15.954964322897421
s 5.668215707716115 -6.653992352536309 12.322208060252425 -6.653992352536309
S 321.1720285433715 -7.210786830377138 321.1720285433715 15.954964322897421
z" fill="none" stroke="none" style="animation-play-state:play" ></path>


<circle cx="0" cy="0" r="5.176567120914583" fill="#de9dd6" transform="translate(316.099365234375 26.969295501708984)" style="animation-play-state:play" ></circle>
<path id="path23" d="M 513.0847768915859 95.37276972084949
c 0 25.10964383035756 -6.14384902232153 7.212344504464405 -13.356193526785935 7.212344504464405
S 486.372389838014 120.48241355120705 486.372389838014 95.37276972084949
s 6.14384902232153 -7.212344504464405 13.356193526785935 -7.212344504464405
S 513.0847768915859 70.26312589049193 513.0847768915859 95.37276972084949
z" fill="none" stroke="none" style="animation-play-state:play" ></path>


<circle cx="0" cy="0" r="5.48304897102877" fill="#51cacc" transform="translate(486.4646911621094 100.11866760253906)" style="animation-play-state:play" ></circle>
<path id="path24" d="M 38.96758524141196 637.4467127047201
c 0 34.8455090035913 -8.526028798751062 10.00881641592516 -18.534845214676224 10.00881641592516
S 1.897894812059512 672.2922217083114 1.897894812059512 637.4467127047201
s 8.526028798751062 -10.00881641592516 18.534845214676224 -10.00881641592516
S 38.96758524141196 602.6012037011287 38.96758524141196 637.4467127047201
z" fill="none" stroke="none" style="animation-play-state:play" ></path>


<circle cx="0" cy="0" r="6.158716039705508" fill="#ff708e" transform="translate(2.1892120838165283 646.7777709960938)" style="animation-play-state:play" ></circle>
<path id="path25" d="M 1148.854857465739 60.93863065809937
c 0 21.76416834472572 -5.325275233283953 6.251410056463771 -11.576685289747724 6.251410056463771
S 1125.7014868862436 82.70279900282509 1125.7014868862436 60.93863065809937
s 5.325275233283953 -6.251410056463771 11.576685289747724 -6.251410056463771
S 1148.854857465739 39.17446231337365 1148.854857465739 60.93863065809937
z" fill="none" stroke="none" style="animation-play-state:play" ></path>


<circle cx="0" cy="0" r="6.946835016828691" fill="#51cacc" transform="translate(1140.9376220703125 53.20834732055664)" style="animation-play-state:play" ></circle>
<path id="path26" d="M 931.6085581734853 659.9869837833559
c 0 26.705906197209615 -6.534423856764054 7.670845397070846 -14.2052692538349 7.670845397070846
S 903.1980196658155 686.6928899805655 903.1980196658155 659.9869837833559
s 6.534423856764054 -7.670845397070846 14.2052692538349 -7.670845397070846
S 931.6085581734853 633.2810775861462 931.6085581734853 659.9869837833559
z" fill="none" stroke="none" style="animation-play-state:play" ></path>


<circle cx="0" cy="0" r="4.942160757301172" fill="#51cacc" transform="translate(913.6793212890625 651.0244750976562)" style="animation-play-state:play" ></circle>
<path id="path27" d="M 314.02084587623267 741.2958893578062
c 0 23.684065166207624 -5.795037221518886 6.802869781783041 -12.597907003301927 6.802869781783041
S 288.8250318696288 764.9799545240138 288.8250318696288 741.2958893578062
s 5.795037221518886 -6.802869781783041 12.597907003301927 -6.802869781783041
S 314.02084587623267 717.6118241915987 314.02084587623267 741.2958893578062
z" fill="none" stroke="none" style="animation-play-state:play" ></path>


<circle cx="0" cy="0" r="6.8671613088301235" fill="#ff708e" transform="translate(313.9737243652344 737.8984375)" style="animation-play-state:play" ></circle>
<path id="path28" d="M 76.21818296888183 441.0096261785644
c 0 37.40620200601539 -9.152581341897381 10.744334618749102 -19.896915960646485 10.744334618749102
S 36.42435104758887 478.4158281845798 36.42435104758887 441.0096261785644
s 9.152581341897381 -10.744334618749102 19.896915960646485 -10.744334618749102
S 76.21818296888183 403.603424172549 76.21818296888183 441.0096261785644
z" fill="none" stroke="none" style="animation-play-state:play" ></path>


<circle cx="0" cy="0" r="4.853016700973975" fill="#ff708e" transform="translate(36.45055389404297 444.3080749511719)" style="animation-play-state:play" ></circle>
<path id="path29" d="M 542.9177048162395 445.6426281278864
c 0 29.37253175399268 -7.186896067466292 8.436791035721301 -15.623687103187594 8.436791035721301
S 511.67033060986427 475.0151598818791 511.67033060986427 445.6426281278864
s 7.186896067466292 -8.436791035721301 15.623687103187594 -8.436791035721301
S 542.9177048162395 416.2700963738937 542.9177048162395 445.6426281278864
z" fill="none" stroke="none" style="animation-play-state:play" ></path>


<circle cx="0" cy="0" r="5.259191282051374" fill="#e0ff77" transform="translate(523.6810302734375 455.2059326171875)" style="animation-play-state:play" ></circle></g></svg>